HIERARCHY
ROOT Hips
{
  OFFSET -222.896 81.8314 -207.942
  CHANNELS 6 Xposition Yposition Zposition Zrotation Xrotation Yrotation
  JOINT Spine
  {
    OFFSET 10.2832 1.67858 -0.048102
    CHANNELS 3 Zrotation Xrotation Yrotation
    JOINT Spine1
    {
      OFFSET 12.2747 3.29442 1.09098
      CHANNELS 3 Zrotation Xrotation Yrotation
      JOINT Neck
      {
        OFFSET 31.2239 8.00151 -0.587386
        CHANNELS 3 Zrotation Xrotation Yrotation
        JOINT Head
        {
          OFFSET 9.52751 0.295786 -0.907742
          CHANNELS 3 Zrotation Xrotation Yrotation
          End Site
          {
            OFFSET 16.4037 0.791643 2.7358
          }
        }
      }
      JOINT LeftShoulder
      {
        OFFSET 28.911 5.13152 2.01494
        CHANNELS 3 Zrotation Xrotation Yrotation
        JOINT LeftArm
        {
          OFFSET 1.20734 -0.998971 20.1238
          CHANNELS 3 Zrotation Xrotation Yrotation
          JOINT LeftForeArm
          {
            OFFSET 26.8049 -0.0536703 -0.155908
            CHANNELS 3 Zrotation Xrotation Yrotation
            JOINT LeftHand
            {
              OFFSET 26.6817 0 0.320147
              CHANNELS 3 Zrotation Xrotation Yrotation
              End Site
              {
                OFFSET 18.6119 0 0.382219
              }
            }
          }
        }
      }
      JOINT RightShoulder
      {
        OFFSET 28.9463 4.89009 -3.10871
        CHANNELS 3 Zrotation Xrotation Yrotation
        JOINT RightArm
        {
          OFFSET 2.83739 -1.17114 -18.7564
          CHANNELS 3 Zrotation Xrotation Yrotation
          JOINT RightForeArm
          {
            OFFSET 28.839 -0.0548439 1.22491
            CHANNELS 3 Zrotation Xrotation Yrotation
            JOINT RightHand
            {
              OFFSET 26.5114 0 -0.101894
              CHANNELS 3 Zrotation Xrotation Yrotation
              End Site
              {
                OFFSET 18.2168 0 0
              }
            }
          }
        }
      }
    }
  }
  JOINT LeftUpLeg
  {
    OFFSET -2.09119 -9.33082 -10.081
    CHANNELS 3 Zrotation Xrotation Yrotation
    JOINT LeftLeg
    {
      OFFSET 2.55951 -42.0585 -8.02213
      CHANNELS 3 Zrotation Xrotation Yrotation
      JOINT LeftFoot
      {
        OFFSET 3.16357 -42.5282 -3.95426
        CHANNELS 3 Zrotation Xrotation Yrotation
        JOINT LeftToeBase
        {
          OFFSET 0.346054 -6.02161 12.8035
          CHANNELS 3 Zrotation Xrotation Yrotation
          End Site
          {
            OFFSET 0.134235 -1.35082 5.13018
          }
        }
      }
    }
  }
  JOINT RightUpLeg
  {
    OFFSET -2.27102 -8.83155 10.7989
    CHANNELS 3 Zrotation Xrotation Yrotation
    JOINT RightLeg
    {
      OFFSET -2.56294 -42.0364 -7.94377
      CHANNELS 3 Zrotation Xrotation Yrotation
      JOINT RightFoot
      {
        OFFSET -3.0952 -42.555 -4.02241
        CHANNELS 3 Zrotation Xrotation Yrotation
        JOINT RightToeBase
        {
          OFFSET -0.0828122 -6.13587 12.8035
          CHANNELS 3 Zrotation Xrotation Yrotation
          End Site
          {
            OFFSET -0.131328 -1.35082 5.13018
          }
        }
      }
    }
  }
}
MOTION
Frames:	7
Frame Time:	0.0333333
-238.867 85.0464 -225.433 54.9143 -44.7235 -26.1101 -171.574 22.3198 -179.935 -4.21337 16.3777 6.79419 -159.712 17.0796 -176.635 -155.195 57.0151 -165.862 -0.181924 -16.2694 -30.5932 -71.377 45.475 -76.1949 17.1506 3.73273 -77.4788 0.420957 0.000575136 0.35866 -2.15242 7.43579 43.2642 -72.3598 -36.7008 62.4755 17.7803 -7.72903 67.1639 0.58676 0.000331133 0.0646654 -42.1463 0.773937 88.5304 -109.005 85.6808 105.78 -0.621145 -6.56269 -0.561951 5.98814 -14.0829 12.9304 -15.9029 2.67499 71.2214 4.00936 64.0222 -8.63797 -10.0533 -19.6447 1.25719 1.00588 -1.97861 -5.3408 
-231.226 83.568 -216.772 52.4127 -48.6652 -28.6505 -174.782 19.4055 -178.511 -5.50853 19.4503 6.63153 -163.49 17.8397 -173.442 -160.546 58.4268 -161.702 -0.351028 -16.3074 -33.4094 -71.8878 46.3325 -71.7081 17.2154 7.19727 -67.4339 0.420957 0.000575136 0.35866 -2.48368 8.00129 45.2293 -71.5826 -30.6428 73.4168 21.6346 -9.14108 68.0635 0.58676 0.000331133 0.0646654 -26.1757 2.44919 87.7199 -147.986 81.3163 143.537 -0.25872 -10.5483 -0.915926 6.71061 -15.4392 16.946 -20.6764 7.37378 74.9057 7.87427 71.0122 -7.33921 -8.08558 -27.9036 1.41208 3.19835 -1.26202 -20.2255 
-222.896 81.8314 -207.942 47.0874 -53.0738 -33.2436 -176.916 16.1161 -175.729 -5.83032 23.922 3.41779 -168.578 17.9086 -175.27 -160.245 58.5539 -167.121 -0.442933 -16.5923 -33.8434 -70.9101 49.0519 -65.7607 16.0985 9.54688 -59.6102 0.420957 0.000575136 0.35866 -2.78579 8.40709 47.2147 -68.0268 -25.6429 86.1158 20.4982 -8.31883 68.7373 0.58676 0.000331133 0.0646654 -10.4148 5.03101 85.4252 -142.25 82.7154 138.348 0.464846 -11.341 -1.0029 9.93407 -19.9616 19.0712 -27.5729 11.5454 78.1886 9.90378 74.507 -10.6585 -10.9962 -32.7145 0.957074 2.53674 -10.6489 -17.9561 
-213.475 80.7119 -198.011 41.5973 -54.8004 -41.7323 -173.446 13.7641 -178.797 -6.33246 27.2431 2.84107 -168.208 18.554 -176.419 -159.601 58.9241 -169.704 -0.0259436 -15.3841 -31.0922 -60.1089 56.344 -64.7683 14.9908 9.35875 -58.2428 0.420957 0.000575136 0.35866 -2.4724 8.72965 42.47 -69.6171 -29.25 94.8494 24.3571 -6.00169 76.841 0.58676 0.000331133 0.0646654 1.10822 5.25713 86.6101 -37.534 84.0003 34.9666 0.679797 -10.6865 -0.960313 10.4159 -20.5169 21.2786 -36.7509 8.68848 83.8356 13.0683 75.7483 -9.2087 -8.19897 -37.0697 1.467 2.39122 -16.1631 -20.3686 
-203.505 80.1681 -186.654 38.5872 -57.6298 -46.5991 -172.54 10.4779 -179.172 -7.17037 31.1753 1.17914 -167.375 20.0937 -177.388 -160.782 60.3418 -170.155 0.389108 -14.093 -27.006 -46.9767 65.1503 -65.0262 16.3437 8.31319 -63.2319 0.420957 0.000575136 0.35866 -2.00683 9.21719 35.7935 -69.0246 -37.7679 99.572 31.7727 -1.60763 87.1994 0.58676 0.000331133 0.0646654 5.05792 7.95445 87.1612 -7.13645 68.8861 5.97147 -1.90036 -3.67913 -0.194042 6.8992 -15.6585 15.8615 -50.7336 4.80774 88.6131 9.65777 70.5291 -1.79896 -9.77485 -28.4695 1.2001 1.8621 -32.8191 -16.9238 
-193.05 80.9591 -173.426 39.4736 -59.0808 -49.0169 -168.22 7.89662 178.854 -3.86656 34.0178 -2.21142 -163.922 21.9911 177.937 -159.07 61.6566 -172.273 0.620202 -14.0797 -20.5502 -37.1258 74.8087 -65.0636 16.5571 6.61522 -68.2691 0.420957 0.000575136 0.35866 -1.46529 9.6874 28.8027 -63.4033 -47.599 105.713 36.2344 4.68038 96.1102 0.58676 0.000331133 0.0646654 0.859439 9.30705 91.3875 -2.71182 46.2994 -3.18041 -9.146 12.1185 2.98873 5.01677 -12.6794 14.0871 -67.3638 -3.31368 90.9182 5.55786 58.159 7.58431 -1.48175 -16.8017 1.4442 4.36464 -35.952 -1.88264 
-182.463 82.4912 -159.597 43.3821 -59.8908 -47.2889 -162.553 6.23349 177.879 1.1665 35.3136 -5.7496 -157.561 22.5828 170.75 -153.954 61.54 -177.759 0.85909 -14.0105 -13.8255 -29.6632 82.836 -67.0769 17.8474 5.86122 -71.8252 0.420957 0.000575136 0.35866 -0.974158 10.0527 22.9604 -51.6647 -54.639 115.308 37.4214 8.66009 100.872 0.58676 0.000331133 0.0646654 -7.13653 8.44274 96.4382 -1.85382 26.2711 -8.75751 -14.1651 21.5949 6.06657 4.6458 -11.6432 10.4433 -83.5727 -9.28339 89.4493 3.06564 41.3591 11.0919 1.69113 13.2796 -1.2784 6.19664 -31.0736 17.3623 
